<svg xmlns="http://www.w3.org/2000/svg" xmlns:xlink="http://www.w3.org/1999/xlink" viewBox="0 0 468.76 145.39"><defs><style>.cls-1,.cls-14,.cls-17,.cls-18,.cls-8,.cls-9{fill:none;}.cls-2{fill:#519834;}.cls-3{fill:#c59324;}.cls-10,.cls-13,.cls-16,.cls-4,.cls-6,.cls-7{fill:#fff;}.cls-5{fill:#517ad9;}.cls-6{font-size:10.58px;font-family:WorkSans-Medium, Work Sans;font-weight:500;}.cls-7,.cls-8{stroke:#517ad9;}.cls-13,.cls-14,.cls-16,.cls-18,.cls-7,.cls-8,.cls-9{stroke-linecap:round;}.cls-13,.cls-14,.cls-16,.cls-17,.cls-18,.cls-7,.cls-8,.cls-9{stroke-miterlimit:10;}.cls-13,.cls-14,.cls-16,.cls-18,.cls-7,.cls-8{stroke-width:0.91px;}.cls-9{stroke:#fff;stroke-width:2.72px;}.cls-10{font-size:16.66px;font-family:Roboto-Black, Roboto;font-weight:800;}.cls-11{font-family:Roboto-Regular, Roboto;font-weight:400;letter-spacing:0em;}.cls-12{fill:url(#New_Pattern_Swatch_1);}.cls-13,.cls-14{stroke:url(#New_Pattern_Swatch_1);}.cls-15{fill:url(#New_Pattern_Swatch_3);}.cls-16,.cls-17,.cls-18{stroke:url(#New_Pattern_Swatch_3);}.cls-17{stroke-width:1.13px;}</style><pattern id="New_Pattern_Swatch_1" data-name="New Pattern Swatch 1" width="295.92" height="108.63" patternUnits="userSpaceOnUse" viewBox="0 0 295.92 108.63"><rect class="cls-1" width="295.92" height="108.63"></rect><rect class="cls-2" width="295.92" height="108.63"></rect></pattern><pattern id="New_Pattern_Swatch_3" data-name="New Pattern Swatch 3" width="295.92" height="108.63" patternUnits="userSpaceOnUse" viewBox="0 0 295.92 108.63"><rect class="cls-1" width="295.92" height="108.63"></rect><rect class="cls-3" width="295.92" height="108.63"></rect></pattern></defs><g id="Layer_2" data-name="Layer 2"><g id="OBJECTS"><circle class="cls-4" cx="72.69" cy="72.69" r="72.69" transform="translate(-30.11 72.69) rotate(-45)"></circle><circle class="cls-5" cx="72.69" cy="72.69" r="70.07"></circle><text class="cls-6" transform="matrix(0.83, -0.55, 0.55, 0.83, 40.38, 26.44)">C</text><text class="cls-6" transform="translate(48.02 21.54) rotate(-24.29)">E</text><text class="cls-6" transform="translate(55.87 18.15) rotate(-14.92)">R</text><text class="cls-6" transform="matrix(0.99, -0.1, 0.1, 0.99, 64.38, 16.04)">T</text><text class="cls-6" transform="translate(72.82 15.4) rotate(1.29)">I</text><text class="cls-6" transform="translate(77.92 15.53) rotate(8.42)">F</text><text class="cls-6" transform="matrix(0.96, 0.27, -0.27, 0.96, 86.16, 16.98)">I</text><text class="cls-6" transform="matrix(0.92, 0.39, -0.39, 0.92, 91.05, 18.35)">E</text><text class="cls-6" transform="matrix(0.84, 0.54, -0.54, 0.84, 98.89, 21.8)">D</text><text class="cls-6" transform="matrix(0.73, 0.69, -0.69, 0.73, 33.49, 119.41)">G</text><text class="cls-6" transform="matrix(0.85, 0.53, -0.53, 0.85, 41.47, 126.53)">U</text><text class="cls-6" transform="translate(50.29 131.73) rotate(21.41)">A</text><text class="cls-6" transform="translate(59.71 135.13) rotate(10.62)">R</text><text class="cls-6" transform="translate(69.67 136.77) rotate(-0.93)">A</text><text class="cls-6" transform="translate(79.7 136.46) rotate(-11.03)">N</text><text class="cls-6" transform="translate(90.2 134.07) rotate(-21.92)">T</text><text class="cls-6" transform="translate(98.92 130.28) rotate(-32.17)">E</text><text class="cls-6" transform="matrix(0.74, -0.67, 0.67, 0.74, 106.98, 124.9)">E</text><path class="cls-7" d="M115.23,90.49a46.78,46.78,0,0,1-87.09.22"></path><path class="cls-7" d="M26.77,57.35a46.77,46.77,0,0,1,89.78.15"></path><path class="cls-7" d="M45.83,57.46c3.75-14.22,13.29-27.1,25-33.4"></path><path class="cls-7" d="M68.69,120.17c-10.26-6.3-18.18-16.86-21.89-29.59"></path><path class="cls-8" d="M97.73,57.55C94,43.33,84.46,30.36,72.8,24.06"></path><path class="cls-8" d="M74.9,120.17c10.26-6.3,18.18-16.86,21.89-29.59"></path><line class="cls-7" x1="71.64" y1="57.36" x2="71.64" y2="23.79"></line><line class="cls-7" x1="71.46" y1="120.12" x2="71.82" y2="90.65"></line><line class="cls-9" x1="3.69" y1="57.72" x2="141.96" y2="57.72"></line><line class="cls-9" x1="140.84" y1="90.13" x2="4.31" y2="90.13"></line><path class="cls-8" d="M96.63,31.35a44.49,44.49,0,0,1-25,7.63,44.46,44.46,0,0,1-25-7.63"></path><path class="cls-8" d="M46.65,112.77a44.74,44.74,0,0,1,50,0"></path><text class="cls-10" transform="translate(13.31 79.78)">ISO<tspan class="cls-11" x="26.95" y="0" xml:space="preserve"> 45001:2018</tspan></text><polygon class="cls-4" points="25.62 30.47 26.68 32.62 29.06 32.96 27.34 34.64 27.75 37 25.62 35.89 23.5 37 23.9 34.64 22.19 32.96 24.56 32.62 25.62 30.47"></polygon><polygon class="cls-4" points="119.09 30.47 120.16 32.62 122.53 32.96 120.81 34.64 121.22 37 119.09 35.89 116.97 37 117.38 34.64 115.66 32.96 118.03 32.62 119.09 30.47"></polygon><polygon class="cls-4" points="25.62 106.61 26.68 108.76 29.06 109.1 27.34 110.78 27.75 113.14 25.62 112.03 23.5 113.14 23.9 110.78 22.19 109.1 24.56 108.76 25.62 106.61"></polygon><polygon class="cls-4" points="119.09 106.61 120.16 108.76 122.53 109.1 120.81 110.78 121.22 113.14 119.09 112.03 116.97 113.14 117.38 110.78 115.66 109.1 118.03 108.76 119.09 106.61"></polygon><circle class="cls-4" cx="234.38" cy="72.69" r="72.69" transform="translate(17.25 187.02) rotate(-45)"></circle><circle class="cls-12" cx="234.38" cy="72.69" r="70.07"></circle><text class="cls-6" transform="matrix(0.83, -0.55, 0.55, 0.83, 202.06, 26.44)">C</text><text class="cls-6" transform="translate(209.71 21.54) rotate(-24.28)">E</text><text class="cls-6" transform="translate(217.56 18.15) rotate(-14.92)">R</text><text class="cls-6" transform="matrix(0.99, -0.1, 0.1, 0.99, 226.07, 16.04)">T</text><text class="cls-6" transform="matrix(1, 0.02, -0.02, 1, 234.51, 15.4)">I</text><text class="cls-6" transform="matrix(0.99, 0.15, -0.15, 0.99, 239.61, 15.53)">F</text><text class="cls-6" transform="matrix(0.96, 0.27, -0.27, 0.96, 247.85, 16.98)">I</text><text class="cls-6" transform="matrix(0.92, 0.39, -0.39, 0.92, 252.74, 18.35)">E</text><text class="cls-6" transform="matrix(0.84, 0.54, -0.54, 0.84, 260.58, 21.8)">D</text><text class="cls-6" transform="translate(195.17 119.41) rotate(43.36)">G</text><text class="cls-6" transform="translate(203.15 126.53) rotate(32.11)">U</text><text class="cls-6" transform="translate(211.97 131.73) rotate(21.41)">A</text><text class="cls-6" transform="matrix(0.98, 0.18, -0.18, 0.98, 221.4, 135.13)">R</text><text class="cls-6" transform="translate(231.35 136.77) rotate(-0.93)">A</text><text class="cls-6" transform="translate(241.39 136.46) rotate(-11.03)">N</text><text class="cls-6" transform="translate(251.89 134.07) rotate(-21.92)">T</text><text class="cls-6" transform="translate(260.61 130.28) rotate(-32.17)">E</text><text class="cls-6" transform="matrix(0.74, -0.67, 0.67, 0.74, 268.66, 124.9)">E</text><path class="cls-13" d="M276.92,90.49a46.78,46.78,0,0,1-87.09.22"></path><path class="cls-13" d="M188.46,57.35a46.77,46.77,0,0,1,89.78.15"></path><path class="cls-13" d="M207.52,57.46c3.75-14.22,13.29-27.1,24.95-33.4"></path><path class="cls-13" d="M230.38,120.17c-10.26-6.3-18.18-16.86-21.89-29.59"></path><path class="cls-14" d="M259.42,57.55c-3.75-14.22-13.27-27.19-24.93-33.49"></path><path class="cls-14" d="M236.58,120.17c10.27-6.3,18.19-16.86,21.89-29.59"></path><line class="cls-13" x1="233.33" y1="57.36" x2="233.33" y2="23.79"></line><line class="cls-13" x1="233.14" y1="120.12" x2="233.51" y2="90.65"></line><line class="cls-9" x1="165.38" y1="57.72" x2="303.65" y2="57.72"></line><line class="cls-9" x1="302.52" y1="90.13" x2="166" y2="90.13"></line><path class="cls-14" d="M258.32,31.35a44.51,44.51,0,0,1-25,7.63,44.46,44.46,0,0,1-25-7.63"></path><path class="cls-14" d="M208.34,112.77a44.74,44.74,0,0,1,50,0"></path><text class="cls-10" transform="translate(175 79.78)">ISO<tspan class="cls-11" x="26.95" y="0" xml:space="preserve"> 14001:2015</tspan></text><polygon class="cls-4" points="187.31 30.47 188.37 32.62 190.75 32.96 189.03 34.64 189.44 37 187.31 35.89 185.19 37 185.59 34.64 183.87 32.96 186.25 32.62 187.31 30.47"></polygon><polygon class="cls-4" points="280.78 30.47 281.85 32.62 284.22 32.96 282.5 34.64 282.91 37 280.78 35.89 278.66 37 279.06 34.64 277.35 32.96 279.72 32.62 280.78 30.47"></polygon><polygon class="cls-4" points="187.31 106.61 188.37 108.76 190.75 109.1 189.03 110.78 189.44 113.14 187.31 112.03 185.19 113.14 185.59 110.78 183.87 109.1 186.25 108.76 187.31 106.61"></polygon><polygon class="cls-4" points="280.78 106.61 281.85 108.76 284.22 109.1 282.5 110.78 282.91 113.14 280.78 112.03 278.66 113.14 279.06 110.78 277.35 109.1 279.72 108.76 280.78 106.61"></polygon><circle class="cls-4" cx="396.07" cy="72.69" r="72.69" transform="translate(64.6 301.35) rotate(-45)"></circle><circle class="cls-15" cx="396.07" cy="72.69" r="70.07"></circle><text class="cls-6" transform="translate(363.75 26.44) rotate(-33.7)">C</text><text class="cls-6" transform="translate(371.4 21.54) rotate(-24.29)">E</text><text class="cls-6" transform="translate(379.24 18.15) rotate(-14.92)">R</text><text class="cls-6" transform="matrix(0.99, -0.1, 0.1, 0.99, 387.76, 16.04)">T</text><text class="cls-6" transform="matrix(1, 0.02, -0.02, 1, 396.19, 15.4)">I</text><text class="cls-6" transform="translate(401.3 15.53) rotate(8.42)">F</text><text class="cls-6" transform="translate(409.54 16.98) rotate(15.63)">I</text><text class="cls-6" transform="matrix(0.92, 0.39, -0.39, 0.92, 414.43, 18.35)">E</text><text class="cls-6" transform="matrix(0.84, 0.54, -0.54, 0.84, 422.27, 21.8)">D</text><text class="cls-6" transform="matrix(0.73, 0.69, -0.69, 0.73, 356.86, 119.41)">G</text><text class="cls-6" transform="matrix(0.85, 0.53, -0.53, 0.85, 364.84, 126.53)">U</text><text class="cls-6" transform="translate(373.66 131.73) rotate(21.41)">A</text><text class="cls-6" transform="translate(383.09 135.13) rotate(10.62)">R</text><text class="cls-6" transform="translate(393.04 136.77) rotate(-0.93)">A</text><text class="cls-6" transform="translate(403.08 136.46) rotate(-11.03)">N</text><text class="cls-6" transform="translate(413.58 134.06) rotate(-21.91)">T</text><text class="cls-6" transform="translate(422.3 130.28) rotate(-32.17)">E</text><text class="cls-6" transform="matrix(0.74, -0.67, 0.67, 0.74, 430.35, 124.9)">E</text><path class="cls-16" d="M438.6,90.49a46.77,46.77,0,0,1-87.08.22"></path><path class="cls-16" d="M350.15,57.35a46.77,46.77,0,0,1,89.78.15"></path><path class="cls-17" d="M369.21,57.46c3.75-14.22,13.29-27.1,25-33.4"></path><path class="cls-16" d="M392.07,120.17c-10.27-6.3-18.18-16.86-21.89-29.59"></path><path class="cls-18" d="M421.11,57.55c-3.76-14.22-13.27-27.19-24.93-33.49"></path><path class="cls-18" d="M398.27,120.17c10.27-6.3,18.18-16.86,21.89-29.59"></path><line class="cls-16" x1="395.02" y1="57.36" x2="395.02" y2="23.79"></line><line class="cls-16" x1="394.83" y1="120.12" x2="395.2" y2="90.65"></line><line class="cls-9" x1="327.07" y1="57.72" x2="465.34" y2="57.72"></line><line class="cls-9" x1="464.21" y1="90.13" x2="327.69" y2="90.13"></line><path class="cls-18" d="M420,31.35A44.46,44.46,0,0,1,395,39a44.46,44.46,0,0,1-25-7.63"></path><path class="cls-18" d="M370,112.77a44.72,44.72,0,0,1,50,0"></path><text class="cls-10" transform="translate(336.69 79.78)">ISO<tspan class="cls-11" x="26.95" y="0" xml:space="preserve"> 9001:2015</tspan></text><polygon class="cls-4" points="349 30.47 350.06 32.62 352.44 32.96 350.72 34.64 351.12 37 349 35.89 346.88 37 347.28 34.64 345.56 32.96 347.94 32.62 349 30.47"></polygon><polygon class="cls-4" points="442.47 30.47 443.53 32.62 445.91 32.96 444.19 34.64 444.6 37 442.47 35.89 440.35 37 440.75 34.64 439.04 32.96 441.41 32.62 442.47 30.47"></polygon><polygon class="cls-4" points="349 106.61 350.06 108.76 352.44 109.1 350.72 110.78 351.12 113.14 349 112.03 346.88 113.14 347.28 110.78 345.56 109.1 347.94 108.76 349 106.61"></polygon><polygon class="cls-4" points="442.47 106.61 443.53 108.76 445.91 109.1 444.19 110.78 444.6 113.14 442.47 112.03 440.35 113.14 440.75 110.78 439.04 109.1 441.41 108.76 442.47 106.61"></polygon></g></g></svg>